<?xml version="1.0" encoding="UTF-8"?>
<svg width="332px" height="379px" viewBox="0 0 332 379" version="1.1" xmlns="http://www.w3.org/2000/svg" xmlns:xlink="http://www.w3.org/1999/xlink">
    <title>编组备份</title>
    <g id="页面-1" stroke="none" stroke-width="1" fill="none" fill-rule="evenodd">
        <g id="画板" transform="translate(-736.000000, -854.000000)">
            <g id="编组备份" transform="translate(736.000000, 854.000000)">
                <path d="M232.884801,305 C253.940627,305 257.5493,319.090994 253.156132,332.936072 C249.594941,344.050833 240.960887,354.710569 227.434912,359.148679 L226.891265,359.322872 L206.306135,365.765874 C220.462993,371.682535 229.801418,374.489496 234.32141,374.186755 C241.91182,373.678364 242.411001,367.905344 243.038597,365.962607 C245.233744,361.068876 250.67108,361.068876 251.542515,361.068876 C256.990035,361.068876 261.301623,363.823137 259.638495,369.036559 C258.038127,374.004064 251.776534,378.341038 242.379622,378.922387 C236.049741,379.313991 229.933564,378.22369 224.03109,375.651484 C213.550208,370.187662 206.116474,367.767488 201.729886,368.39096 C200.429787,368.575746 198.788343,367.06923 199.59973,365.765874 C200.153101,364.779727 201.447176,364.189528 203.481956,363.995278 C204.444865,363.903354 205.76983,363.833067 207.421961,363.364245 L207.780984,363.25753 L215.061091,360.97051 C194.287683,360.97051 190.114174,347.322165 194.69562,333.034438 C199.182927,318.894261 211.985874,305 232.884801,305 Z M115.022263,305 C118.91963,305 121.825711,305.318707 124.655539,305.687213 L125.597246,305.811523 C129.135315,306.262369 132.541545,306.609897 136.226834,306.664687 L137.23914,306.67223 L127.887969,323.566667 C129.0804,312.500442 125.534486,311.172356 120.356824,311.172356 C110.3445,311.172356 98.4097871,318.941272 94.1450716,331.043505 L94.0010671,331.462536 L93.6663996,332.477546 L93.5028745,332.985255 C89.8000617,344.641679 97.261313,353.445476 107.616637,353.445476 C108.711195,353.445476 109.816008,353.307621 110.914567,353.044945 C115.639866,350.132795 118.002501,348.677272 118.002501,348.677272 L121.159168,344.993068 L124.780577,338.24714 C127.453532,333.910803 130.34282,332.895022 133.448441,335.199795 C138.106872,338.656955 131.63255,348.314374 122.573222,353.749603 C113.513895,359.184831 102.878324,361 98,361 L98.0782891,360.954702 C97.7149679,360.965205 97.3484996,360.97051 96.978895,360.97051 C75.8916894,360.97051 72.251636,346.879516 76.6448039,333.05903 C81.1634908,318.894261 94.1547157,305 115.022263,305 Z M162.029197,306.696821 C158.103416,314.617044 161.910835,321.805992 173.451453,328.263665 L175.083201,326.886535 C179.256711,323.345343 181.610193,319.853334 182.582966,316.779382 C184.120575,311.983526 182.373236,308.179617 179.142548,306.825816 L178.942913,306.746004 L211.295456,306.746004 C207.476373,307.183994 197.359153,311.763162 181.673376,324.509626 L181.170877,324.919206 L175.083201,329.837528 L172.039364,339.428257 C169.388048,347.691039 168.039133,355.882612 169.391198,358.82596 L169.466222,358.978589 L142.824797,358.978589 C143.472624,358.427386 144.144712,357.662285 144.826989,356.724779 C161.274587,337.526266 159.800486,320.990541 140.40555,307.116434 L139.812339,306.696821 L162.029197,306.696821 Z M234.978051,306.303606 C226.848354,306.861001 217.070008,320.167772 211.377926,333.387667 L211.16725,333.883644 L210.960672,334.378914 L210.56008,335.366724 C205.659034,347.687819 204.788514,358.918845 212.658911,358.379228 C220.842093,357.818165 230.326298,344.773174 236.013027,331.505324 C236.202277,331.065805 236.386773,330.626612 236.566311,330.188246 L236.831872,329.531378 L237.215931,328.549219 C241.782623,316.626851 242.44088,305.791933 234.978051,306.303606 Z" id="形状结合备份-8" fill="#090909" fill-rule="nonzero"></path>
                <path d="M166.188179,237 C174.729444,237 183.036965,235.999225 190.99988,234.108539 L191.000123,264.75885 C182.953097,266.23095 174.660449,267 166.188179,267 C157.583239,267 149.163589,266.206675 140.99838,264.689176 L140.999729,234.018359 C149.077236,235.967388 157.512118,237 166.188179,237 Z" id="形状结合" fill="#E54041" fill-rule="nonzero"></path>
                <path d="M167.160241,237 C167.624025,237 168.086455,236.987379 168.547426,236.962288 L169.237773,236.915319 L168.244565,236.956499 L167.248732,236.984124 L166.625361,236.994 L165.733226,236.960089 C139.997298,235.518948 118.70368,195.209088 113.784976,142.001468 L134.123868,142.001202 C141.473443,152.314165 153.531452,159.039474 167.160241,159.039474 C180.78903,159.039474 192.847038,152.314165 200.196613,142.001202 L220.535498,142.001545 C215.65829,194.760079 194.681406,234.837638 169.237773,236.915319 C212.227937,234.837729 247.671123,194.760151 255.911804,142.001568 L283.329869,142.001791 C272.427081,196.189608 224.55955,237 167.160241,237 Z M160.753881,236.829779 L160.600778,236.821525 C106.144073,233.850511 61.4750303,194.111474 50.9905089,142.001275 L75.5430452,142.001212 C83.6899494,194.160265 118.424598,233.924963 160.753881,236.829779 Z M160.601716,0.18083912 C118.341162,3.1705081 83.6799639,42.9025743 75.5429711,94.9992653 L50.9903609,94.9994601 C61.3954425,43.2823913 105.471163,3.75036034 159.368833,0.252058017 L160.601716,0.18083912 Z M167.160241,-5.68434189e-14 C224.559903,-5.68434189e-14 272.42767,40.8108941 283.33007,94.9992098 L255.911905,94.9990773 C247.668544,42.2217891 212.203431,2.13419394 169.192848,0.0810499719 L170.064915,0.165753293 C195.135126,3.0340063 215.711515,42.8131825 220.535596,94.9995125 L200.197328,94.9998002 C192.84782,84.6862706 180.789471,77.9605263 167.160241,77.9605263 C153.53101,77.9605263 141.472661,84.6862706 134.123153,94.9998002 L113.784871,94.9996677 C118.680346,42.0406321 139.798058,1.85885054 165.371993,0.0627096021 L166.259877,0.0158756144 L166.682032,0.008 L166.718241,0.007 L167.302815,0.0169706449 C167.618609,0.0237463894 167.934015,0.0325172303 168.249023,0.0432186306 L169.192848,0.0810499719 C168.518373,0.0271737733 167.840765,-5.68434189e-14 167.160241,-5.68434189e-14 Z" id="形状结合" fill="#E54041" fill-rule="nonzero"></path>
                <path d="M29.1959068,65.3056013 C17.5819332,72.5182874 11,80.7545759 11,89.5 C11,117.942665 80.6197214,141 166.5,141 C252.380279,141 322,117.942665 322,89.5 C322,82.4776994 317.756243,75.7836683 310.071766,69.6838648 C324.022786,78.908717 332,89.6008036 332,101 C332,118.708697 312.747993,134.710874 281.753908,146.156376 C271.169352,190.435494 235.727952,225.061406 191.000744,234.464134 L191.000123,264.75885 C182.953097,266.23095 174.660449,267 166.188179,267 C157.583239,267 149.163589,266.206675 140.99838,264.689176 L140.998749,234.249262 C96.8779292,224.57305 61.9633441,190.312908 51.3405159,146.554356 C19.7048632,135.084865 0,118.915764 0,101 C0,87.7480992 10.781002,75.4518393 29.1959068,65.3056013 Z M158.82606,236.731601 L159.994015,236.823703 C162.04382,236.940701 164.109075,237 166.188179,237 L166.971344,236.995652 C167.277242,236.990006 167.582532,236.978871 167.887185,236.962288 L168.577533,236.915319 C208.034434,235.008481 241.133915,201.091236 252.679383,154.738859 C241.685149,157.299367 229.844369,159.386798 217.353823,160.927417 C209.833831,203.589852 191.307054,234.385063 169.33949,236.841613 L168.577533,236.915319 L167.584324,236.956499 L166.588491,236.984124 L165.96512,236.994 L165.072986,236.960089 C142.511386,235.696702 123.363829,204.561588 115.669748,161.052333 C102.512868,159.465449 90.0663836,157.272958 78.5582845,154.561152 L77.3388218,154.268886 C88.5130644,199.78652 120.446363,233.419595 158.82606,236.731601 Z" id="形状结合" fill="#1C45D1"></path>
                <circle id="椭圆形" fill="#1C45D1" cx="166" cy="119" r="18"></circle>
            </g>
        </g>
    </g>
</svg>