<?xml version="1.0" encoding="UTF-8"?>
<svg width="200px" height="200px" viewBox="0 0 200 200" version="1.1" xmlns="http://www.w3.org/2000/svg" xmlns:xlink="http://www.w3.org/1999/xlink">
    <title>销售报价</title>
    <defs>
        <filter color-interpolation-filters="auto" id="filter-1">
            <feColorMatrix in="SourceGraphic" type="matrix" values="0 0 0 0 0.000000 0 0 0 0 0.000000 0 0 0 0 0.000000 0 0 0 1.000000 0"></feColorMatrix>
        </filter>
    </defs>
    <g id="页面-1" stroke="none" stroke-width="1" fill="none" fill-rule="evenodd">
        <g id="销售报价">
            <rect id="矩形备份" stroke="#979797" fill="#D8D8D8" opacity="0" x="0.5" y="0.5" width="199" height="199"></rect>
            <g filter="url(#filter-1)" id="销售人员">
                <g transform="translate(29.000000, 22.000000)">
                    <path d="M32,39 C32,52.9333578 39.4333576,65.8083116 51.5,72.7749907 C63.5666419,79.7416698 78.4333581,79.7416698 90.5,72.7749907 C102.566642,65.8083116 110,52.9333578 110,39 C110,25.066642 102.566642,12.1916883 90.5,5.22500926 C78.4333581,-1.74166975 63.5666419,-1.74166975 51.5,5.22500926 C39.4333578,12.1916883 32,25.066642 32,39 L32,39 Z" id="路径" fill="#545454" fill-rule="nonzero"></path>
                    <path d="M141.980255,150.921391 C142.256943,154.215605 139.588886,157 136.288401,157 L5.7117293,157 C2.39148095,157 -0.256812371,154.195997 0.019874991,150.921391 C2.6879317,118.41064 26.6213885,92.0177131 57.70919,86.056755 C58.7764127,85.8410624 59.9029256,86.2528391 60.6144073,87.0763926 C60.6144073,87.0763926 68.5,96.2335223 70.1205946,98.1943638 C70.298465,98.4100564 70.3577552,98.723791 70.2391749,98.9787004 L58.2032746,130.018821 C57.9858774,130.548248 58.0846943,131.156109 58.4601986,131.587494 L70.5158622,148.607598 C70.7727862,148.940941 71.2668708,148.940941 71.5040314,148.607598 L83.559695,131.587494 C83.9351993,131.156109 84.0340162,130.548248 83.816619,130.018821 L71.7807187,98.9787004 C71.6819018,98.7041826 71.7214286,98.4100564 71.899299,98.1943638 C73.5198965,96.2335223 81.4054863,87.0763926 81.4054863,87.0763926 C82.1169681,86.2528391 83.2237175,85.8606708 84.3107036,86.056755 C115.378742,92.0177131 139.292435,118.41064 141.980255,150.921391 L141.980255,150.921391 Z" id="路径" fill="#545454" fill-rule="nonzero"></path>
                </g>
            </g>
        </g>
    </g>
</svg>