<?xml version="1.0" encoding="UTF-8"?>
<svg width="200px" height="200px" viewBox="0 0 200 200" version="1.1" xmlns="http://www.w3.org/2000/svg" xmlns:xlink="http://www.w3.org/1999/xlink">
    <title>技术支持</title>
    <g id="页面-1" stroke="none" stroke-width="1" fill="none" fill-rule="evenodd">
        <g id="技术支持">
            <rect id="矩形" stroke="#979797" fill="#D8D8D8" opacity="0" x="0.5" y="0.5" width="199" height="199"></rect>
            <g id="技术人员" transform="translate(30.000000, 16.000000)" fill="#000000" fill-rule="nonzero">
                <path d="M118.496136,124.15412 C126.970762,129.957362 132.840419,136.579947 132.840419,143.25211 L132.840419,148.160338 C132.840419,158.305574 106.271813,167 106.271814,167 L95.2052554,165.580502 L94.8141188,165.530924 L97.0305595,165.483955 L97.0722808,165.233455 C97.3278234,163.712192 98.7228773,155.463969 100.352613,146.211137 L100.618586,144.702921 L100.75418,143.946203 L101.02276,142.419721 C106.842873,136.334666 112.678631,130.252221 118.496136,124.15412 L118.496136,124.15412 Z M26.6833387,117.025317 C27.3665239,116.665224 36.021073,165.695314 36.0393262,165.695314 L37.0641041,165.679658 L26.6494403,166.984344 C26.6494403,166.984344 0,158.305574 0,148.19426 L0,143.280813 C0,133.837498 12.2738664,124.328948 26.6833387,117.022708 L26.6833387,117.025317 Z M99.91454,57.0489133 C99.91454,76.9010117 93.6250635,85.887687 84.6758582,95.0857216 L84.7254021,95.0857216 C80.926162,106.600878 87.0070322,109.358984 87.9692283,109.666889 C91.6198366,110.875029 95.2547993,112.73551 98.9210531,114.332446 C92.5168432,121.051577 86.0917728,127.757662 79.6719173,134.476794 C78.1765975,136.011444 77.1771842,137.960732 76.8035823,140.071286 C75.9874106,144.653342 78.7592653,149.498945 83.2573361,151.213302 C87.5598387,152.857207 92.0109731,151.831724 95.2365464,148.473462 L95.5312025,148.160338 C94.3082489,156.708639 93.233927,163.900067 93.0201056,165.335221 C87.9509754,164.766378 75.139948,163.378192 66.4541079,163.378192 C57.7500148,163.378192 44.905089,164.766378 39.8359588,165.335221 L39.8098829,165.152565 C39.489151,162.976349 38.057591,153.1338 36.6077781,142.704142 L36.3261596,140.681879 C34.5477919,127.841162 32.8476515,114.807351 33.233573,114.627305 C37.2283815,112.816401 39.8516042,111.104653 43.7629702,109.685155 C45.2153907,109.145015 52.1750145,105.379692 48.2792941,95.2005339 C39.2492538,86.0338118 33.1214472,77.1123707 33.1214472,57.0515227 L99.91454,57.0489133 Z M119.017652,86.4904518 C122.236767,85.5910966 125.639101,85.5802766 128.863863,86.4591393 C129.043786,86.5243736 129.239355,86.5713423 129.531403,86.6678892 L120.256251,96.3434386 L131.325416,106.535644 L140.647505,96.7661569 C140.746593,96.9618597 140.827428,97.0610158 140.858719,97.1732188 C144.397201,106.209472 139.408906,116.615646 130.021628,119.79647 C126.528831,121.008851 122.752963,121.145192 119.181929,120.187875 C118.822083,120.091329 118.660413,120.221797 118.4492,120.448812 C110.378748,128.866645 102.329157,137.297524 94.2587048,145.731013 C91.8466958,148.243838 88.5376801,148.977071 85.3277525,147.768932 C81.987446,146.479903 79.9170296,142.876361 80.5350255,139.468521 C80.8133316,137.898373 81.5585373,136.448769 82.6732388,135.309183 L106.72814,110.141795 C107.054087,109.781702 107.087985,109.536421 106.941961,109.113703 C103.468668,99.7199653 109.10625,89.1989795 119.017652,86.4904518 L119.017652,86.4904518 Z M87.1530566,140.201755 C86.2016521,140.234382 85.4532371,141.02634 85.4737769,141.978737 C85.5233209,142.892017 86.3212396,143.596547 87.26779,143.562625 C88.2299861,143.510438 88.9627152,142.761548 88.9470699,141.848268 C88.9288108,141.391349 88.7291616,140.960596 88.3923858,140.651509 C88.05561,140.342422 87.6095343,140.180541 87.1530566,140.201755 Z M59.7213433,1.33100384 C64.2689582,-0.216353515 68.6705487,-0.657337266 73.1190756,1.33100384 C73.1190756,1.33100384 104.527344,12.8487697 104.527344,35.9286604 C104.527344,39.5817806 109.351362,38.6998129 113.361816,50.3793598 L19.494248,50.3793598 C21.6950433,38.7989692 28.32872,39.5817806 28.32872,35.9286604 C28.32872,12.1416298 58.0029499,1.90767477 59.6509388,1.35448805 L59.7213433,1.33100384 Z" id="形状"></path>
            </g>
        </g>
    </g>
</svg>