<?xml version="1.0" encoding="UTF-8"?>
<svg width="200px" height="200px" viewBox="0 0 200 200" version="1.1" xmlns="http://www.w3.org/2000/svg" xmlns:xlink="http://www.w3.org/1999/xlink">
    <title>whatsapp</title>
    <g id="页面-1" stroke="none" stroke-width="1" fill="none" fill-rule="evenodd">
        <g id="whatsapp" fill="#25D366" fill-rule="nonzero">
            <path d="M99.9752143,0 L100.025214,0 C155.166881,0 200.000214,44.8583334 200.000214,100 C200.000214,155.141667 155.158548,200 100.025214,200 C79.6918809,200 60.8252143,193.941667 45.0252143,183.483333 L6.58354749,195.766667 L19.0418809,158.608333 C6.63789295,141.586954 -0.0307748276,121.061465 0.00010677346,100 C0.00010677346,44.8583334 44.8418809,0 99.9752143,0 Z M71.3668809,54.9666666 C69.4585475,50.4083332 68.0085475,50.2333332 65.1168809,50.1166666 C64.0182736,50.0452125 62.9177913,50.0063065 61.8168809,50 C58.0502143,50 54.1168809,51.1 51.7335475,53.525 C48.8585475,56.4666666 41.6668809,63.3333334 41.6668809,77.4416666 C41.6668809,91.5333332 51.9752143,105.166667 53.3585475,107.075 C54.8085475,108.975 73.4585475,138.325 102.400214,150.283333 C125.041881,159.641667 131.758548,158.775 136.916881,157.675 C144.441881,156.058333 153.875214,150.508333 156.250214,143.816667 C158.625214,137.108333 158.625214,131.391667 157.933547,130.175 C157.233547,128.966667 155.325214,128.275 152.433547,126.825 C149.533547,125.383333 135.466881,118.45 132.800214,117.525 C130.191881,116.55 127.708548,116.891667 125.741881,119.666667 C122.958547,123.533333 120.241881,127.466667 118.033547,129.833333 C116.300214,131.683333 113.458547,131.916667 111.091881,130.933333 C107.908547,129.6 98.9918809,126.483333 87.9835475,116.716667 C79.4752141,109.15 73.6835475,99.7333332 72.0085475,96.9083334 C70.3252141,94.0166668 71.8335475,92.3416668 73.1668809,90.7833334 C74.6085475,88.9916668 76.0002143,87.725 77.4502143,86.05 C78.9002143,84.375 79.7002143,83.5083334 80.6335475,81.5416666 C81.6168809,79.6333332 80.9252141,77.6666666 80.2252143,76.225 C79.5335477,74.7833334 73.7418809,60.6833334 71.3668809,54.975 L71.3668809,54.9666666 Z" id="形状"></path>
        </g>
    </g>
</svg>